Coordinates
version=1
nRows=11
nColumns=63
inDegrees=yes

Units are S.I. units (second, meters, Newtons, ...)
If the header above contains a line with 'inDegrees', this indicates whether rotational values are in degrees (yes) or radians (no).

endheader
time	pelvis_tilt	pelvis_list	pelvis_rotation	pelvis_tx	pelvis_ty	pelvis_tz	hip_flexion_r	hip_adduction_r	hip_rotation_r	knee_angle_r	knee_angle_r_beta	ankle_angle_r	subtalar_angle_r	mtp_angle_r	hip_flexion_l	hip_adduction_l	hip_rotation_l	knee_angle_l	knee_angle_l_beta	ankle_angle_l	subtalar_angle_l	mtp_angle_l	L5_S1_Flex_Ext	L5_S1_Lat_Bending	L5_S1_axial_rotation	L4_L5_Flex_Ext	L4_L5_Lat_Bending	L4_L5_axial_rotation	L3_L4_Flex_Ext	L3_L4_Lat_Bending	L3_L4_axial_rotation	L2_L3_Flex_Ext	L2_L3_Lat_Bending	L2_L3_axial_rotation	L1_L2_Flex_Ext	L1_L2_Lat_Bending	L1_L2_axial_rotation	L1_T12_Flex_Ext	L1_T12_Lat_Bending	L1_T12_axial_rotation	Abs_r3	Abs_r2	Abs_r1	Abs_t1	Abs_t2	neck_flexion	neck_bending	neck_rotation	arm_flex_r	arm_add_r	arm_rot_r	elbow_flex_r	pro_sup_r	wrist_flex_r	wrist_dev_r	arm_flex_l	arm_add_l	arm_rot_l	elbow_flex_l	pro_sup_l	wrist_flex_l	wrist_dev_l
2.203390	-0.484923	-1.448062	107.035497	0.211205	0.994892	0.169807	0.646839	0.490222	-33.516378	13.621803	0.237745	31.842765	17.546092	0.000000	6.810702	-2.595702	-6.754055	17.771171	0.310165	29.277497	16.325221	0.000000	-0.067090	-0.879677	-2.982258	-0.124592	-1.169971	-3.168649	-0.110222	-2.138847	-3.168649	-0.076677	-2.138847	-2.609475	-0.062299	-1.793837	-2.423084	-0.038335	-1.362620	-2.236693	-0.479214	-9.951083	-16.586423	0.000000	0.000000	23.517201	-2.374427	31.787511	69.679621	-1.226399	24.421864	141.034032	60.336423	-7.063298	7.072072	-10.699147	-17.447061	0.428754	68.810309	88.863459	-18.987045	1.481511
2.220339	-0.662829	-1.490569	107.296096	0.211409	0.994793	0.170699	0.568472	0.329506	-33.845994	13.547102	0.236442	31.800278	17.550812	0.000000	7.008885	-2.367369	-6.429002	17.968488	0.313609	29.229546	16.281380	0.000000	-0.067102	-0.936692	-2.934705	-0.124616	-1.245801	-3.118124	-0.110243	-2.277474	-3.118124	-0.076691	-2.277474	-2.567867	-0.062311	-1.910103	-2.384448	-0.038342	-1.450936	-2.201029	-0.479306	-10.596051	-16.321949	0.000000	0.000000	23.692094	-3.046851	32.036415	69.623959	-0.576589	24.753643	141.074477	62.565584	-6.060621	7.616153	-10.528297	-17.720838	1.158982	69.078838	88.898748	-18.994272	1.787204
2.237288	-0.833464	-1.548911	107.639111	0.211547	0.994700	0.171482	0.493859	0.182432	-34.176421	13.447558	0.234704	31.793525	17.547065	0.000000	7.229145	-2.137870	-6.032390	18.159697	0.316946	29.207873	16.271507	0.000000	-0.065730	-0.990606	-2.890210	-0.122067	-1.317505	-3.070849	-0.107988	-2.408558	-3.070849	-0.075123	-2.408558	-2.528934	-0.061037	-2.020043	-2.348296	-0.037558	-1.534448	-2.167658	-0.469503	-11.205928	-16.074484	0.000000	0.000000	23.695794	-3.633497	32.643750	69.416496	-0.006437	25.101351	141.190857	64.096125	-5.310565	8.338340	-10.376084	-18.049958	1.957741	69.472631	88.944162	-19.044824	1.953350
2.254237	-0.994873	-1.626641	108.064761	0.211597	0.994608	0.172119	0.424890	0.047807	-34.495722	13.326805	0.232597	31.817913	17.528431	0.000000	7.466710	-1.910074	-5.593158	18.339245	0.320080	29.208356	16.308129	0.000000	-0.062827	-1.041075	-2.847970	-0.116675	-1.384630	-3.025968	-0.103218	-2.531271	-3.025968	-0.071805	-2.531271	-2.491974	-0.058341	-2.122961	-2.313976	-0.035899	-1.612626	-2.135978	-0.448764	-11.776852	-15.839556	0.000000	0.000000	23.520858	-4.159560	33.459077	69.064221	0.448138	25.483191	141.397821	64.866834	-4.852416	9.155071	-10.247454	-18.429612	2.752531	70.010171	89.005810	-18.983775	1.880859
2.271186	-1.133268	-1.733453	108.605602	0.211494	0.994521	0.172600	0.366164	-0.063004	-34.854299	13.176045	0.229965	31.858935	17.501308	0.000000	7.733301	-1.690006	-5.079029	18.498371	0.322857	29.227155	16.389685	0.000000	-0.056159	-1.087596	-2.810293	-0.104293	-1.446503	-2.985937	-0.092263	-2.644382	-2.985937	-0.064184	-2.644382	-2.459007	-0.052149	-2.217826	-2.283363	-0.032089	-1.684687	-2.107720	-0.401137	-12.303107	-15.630008	0.000000	0.000000	23.122427	-4.668033	34.205083	68.545432	0.740574	25.801989	141.694192	65.332251	-4.659099	10.184070	-10.150609	-18.841832	3.464080	70.757962	89.102687	-18.661534	1.713882
2.288136	-1.236904	-1.840535	109.147553	0.211271	0.994451	0.172934	0.329799	-0.154086	-35.141848	13.056504	0.227879	31.917627	17.466537	0.000000	7.983206	-1.503503	-4.608348	18.624876	0.325065	29.276919	16.500993	0.000000	-0.050812	-1.123979	-2.777428	-0.094363	-1.494892	-2.951017	-0.083479	-2.732843	-2.951017	-0.058073	-2.732843	-2.430250	-0.047184	-2.292019	-2.256660	-0.029034	-1.741044	-2.083071	-0.362945	-12.714679	-15.447221	0.000000	0.000000	22.533356	-5.051958	35.093808	67.957159	0.897786	26.152059	141.966328	65.352353	-4.617817	11.126279	-10.201214	-19.190437	3.907855	71.761974	89.293935	-18.225560	1.175688
2.305085	-1.288600	-1.948327	109.702777	0.210850	0.994409	0.173126	0.311951	-0.207471	-35.385838	12.954044	0.226091	31.966081	17.428367	0.000000	8.223854	-1.362681	-4.164065	18.721355	0.326749	29.358671	16.642185	0.000000	-0.045413	-1.148835	-2.744432	-0.084336	-1.527951	-2.915959	-0.074609	-2.793279	-2.915959	-0.051902	-2.793279	-2.401378	-0.042170	-2.342705	-2.229851	-0.025949	-1.779546	-2.058324	-0.324380	-12.995857	-15.263706	0.000000	0.000000	21.721869	-5.332929	35.813313	67.270423	0.841316	26.414942	142.181101	65.174472	-4.784993	11.992960	-10.415122	-19.450061	4.018540	73.114155	89.567614	-17.499028	0.472334
2.322034	-1.283562	-2.051714	110.262257	0.210186	0.994414	0.173175	0.309063	-0.220652	-35.593450	12.872377	0.224665	31.981776	17.387644	0.000000	8.446862	-1.269593	-3.745852	18.782395	0.327815	29.469909	16.804000	0.000000	-0.039715	-1.161275	-2.707156	-0.073756	-1.544496	-2.876353	-0.065249	-2.823525	-2.876353	-0.045391	-2.823525	-2.368761	-0.036880	-2.368073	-2.199564	-0.022693	-1.798815	-2.030367	-0.283683	-13.136579	-15.056388	0.000000	0.000000	20.683415	-5.457830	36.226734	66.463602	0.534756	26.472499	142.287301	65.186504	-5.166503	12.801271	-10.833227	-19.628173	3.775021	74.894668	89.796772	-16.483519	-0.350167
2.338983	-1.232473	-2.146647	110.810958	0.209278	0.994475	0.173100	0.317089	-0.207037	-35.771892	12.821185	0.223772	31.950896	17.345262	0.000000	8.642152	-1.213939	-3.351523	18.805970	0.328226	29.586002	16.975237	0.000000	-0.034612	-1.163463	-2.654901	-0.064277	-1.547405	-2.820833	-0.056863	-2.828843	-2.820833	-0.039558	-2.828843	-2.323039	-0.032140	-2.372533	-2.157107	-0.019777	-1.802204	-1.991176	-0.247227	-13.161322	-14.765765	0.000000	0.000000	19.476791	-5.378881	36.124319	65.491642	-0.061103	26.144499	142.283741	65.510379	-5.704616	13.552738	-11.440179	-19.783045	3.221981	77.170546	89.764570	-15.207915	-1.223442
2.355932	-1.097691	-2.204736	111.345891	0.208049	0.994573	0.172961	0.325810	-0.127121	-35.962962	12.805421	0.223497	31.852022	17.313749	0.000000	8.809766	-1.237125	-2.961824	18.812290	0.328336	29.739572	17.141830	0.000000	-0.031356	-1.146930	-2.592590	-0.058232	-1.525416	-2.754627	-0.051515	-2.788645	-2.754627	-0.035837	-2.788645	-2.268516	-0.029118	-2.338819	-2.106479	-0.017917	-1.776594	-1.944442	-0.223976	-12.974297	-14.419208	0.000000	0.000000	18.178965	-5.144168	35.710502	64.417243	-0.986037	25.539706	142.183752	66.465429	-6.713728	14.159294	-12.264665	-19.912483	2.356412	79.941484	89.417263	-13.739093	-2.242089
2.372881	-0.899382	-2.221488	111.836163	0.206537	0.994717	0.172743	0.325114	-0.000507	-36.163054	12.827594	0.223884	31.683799	17.290091	0.000000	8.931644	-1.322995	-2.589332	18.804409	0.328199	29.899366	17.278482	0.000000	-0.030118	-1.115969	-2.505682	-0.055932	-1.484239	-2.662287	-0.049481	-2.713367	-2.662287	-0.034422	-2.713367	-2.192472	-0.027967	-2.275684	-2.035867	-0.017209	-1.728636	-1.879262	-0.215129	-12.624067	-13.935852	0.000000	0.000000	16.897851	-4.767975	34.777053	63.155542	-2.262737	24.507075	142.000998	67.316032	-7.714468	14.634455	-13.204197	-20.104192	1.262316	83.183857	88.768278	-12.115556	-3.388048
